<svg viewBox="0 0 1024 1024" xmlns="http://www.w3.org/2000/svg">
  <defs>
    <linearGradient id="coin" x1="0" y1="0" x2="0" y2="1">
      <stop offset="0" stop-color="#FBDD86"/>
      <stop offset="1" stop-color="#E2A52C"/>
    </linearGradient>
  </defs>
  <!-- recentred (character centre ~512,460) and scaled to survive Android's adaptive-icon safe-zone crop -->
  <g transform="translate(512 512) scale(0.78) translate(-512 -460)">
    <circle cx="512" cy="420" r="290" fill="url(#coin)" stroke="#B9791A" stroke-width="18"/>
    <circle cx="512" cy="420" r="246" fill="none" stroke="#C58A1E" stroke-width="10" opacity="0.35"/>
    <ellipse cx="430" cy="318" rx="118" ry="74" fill="#FFFFFF" opacity="0.18"/>
    <g fill="#4A3F35">
      <ellipse cx="440" cy="406" rx="26" ry="34"/>
      <ellipse cx="584" cy="406" rx="26" ry="34"/>
    </g>
    <circle cx="450" cy="393" r="9" fill="#fff"/>
    <circle cx="594" cy="393" r="9" fill="#fff"/>
    <g fill="#F1A88C" opacity="0.6"><circle cx="388" cy="460" r="30"/><circle cx="636" cy="460" r="30"/></g>
    <path d="M466 460 Q 512 502 558 460" fill="none" stroke="#4A3F35" stroke-width="15" stroke-linecap="round"/>
    <path d="M512 575 C 430 545, 340 543, 272 557 L 272 760 C 348 746, 446 752, 512 788 Z" fill="#FFFBF2" stroke="#E2B88E" stroke-width="6" stroke-linejoin="round"/>
    <path d="M512 575 C 594 545, 684 543, 752 557 L 752 760 C 676 746, 578 752, 512 788 Z" fill="#FBEFD9" stroke="#E2B88E" stroke-width="6" stroke-linejoin="round"/>
    <path d="M512 575 L 512 788" stroke="#D98F4F" stroke-width="13" stroke-linecap="round"/>
    <g stroke="#E6B98A" stroke-width="10" stroke-linecap="round">
      <path d="M330 602 H 462"/><path d="M322 648 H 462"/><path d="M326 694 H 456"/>
      <path d="M562 602 H 694"/><path d="M562 648 H 702"/><path d="M568 694 H 698"/>
    </g>
    <circle cx="300" cy="556" r="44" fill="url(#coin)" stroke="#B9791A" stroke-width="14"/>
    <circle cx="724" cy="556" r="44" fill="url(#coin)" stroke="#B9791A" stroke-width="14"/>
  </g>
</svg>
